<?xml version="1.0" encoding="iso-8859-1"?>
<!-- Generator: Adobe Illustrator 16.0.0, SVG Export Plug-In . SVG Version: 6.00 Build 0)  -->
<!DOCTYPE svg PUBLIC "-//W3C//DTD SVG 1.1//EN" "http://www.w3.org/Graphics/SVG/1.1/DTD/svg11.dtd">
<svg  version="1.1" id="Capa_1" xmlns="http://www.w3.org/2000/svg" xmlns:xlink="http://www.w3.org/1999/xlink" x="0px" y="0px"
	 width="478.125px" height="478.125px" fill="#999" viewBox="0 0 478.125 478.125" style="enable-background:new 0 0 478.125 478.125;"
	 xml:space="preserve">
<g>
	<path d="M239.062,0C107.1,0,0,107.1,0,239.062c0,131.963,107.1,239.062,239.062,239.062c131.963,0,239.062-107.1,239.062-239.062
		C478.125,107.1,371.025,0,239.062,0z M459,225.675l-57.375-36.337l24.862-65.025C445.612,154.913,457.088,189.337,459,225.675z
		 M413.1,105.188l-28.688,74.587l-72.675,30.6l-63.112-49.725V87.975l66.938-55.462C355.725,47.812,388.237,72.675,413.1,105.188z
		 M300.263,227.587L275.4,306h-72.675l-24.863-78.413l61.2-49.725L300.263,227.587z M239.062,19.125
		c19.125,0,38.25,1.913,55.463,7.65l-55.463,43.988L183.6,26.775C200.812,21.038,219.938,19.125,239.062,19.125z M162.562,32.513
		L229.5,87.975v72.675l-63.112,51.638l-72.675-30.6l-28.688-76.5C89.888,72.675,122.4,47.812,162.562,32.513z M51.638,124.312
		L76.5,189.337l-57.375,36.337C21.038,189.337,32.513,154.913,51.638,124.312z M59.288,365.287
		c-22.95-32.512-38.25-72.675-40.163-116.662L91.8,200.812l66.938,28.688l24.863,82.237l-47.812,49.726L59.288,365.287z
		 M74.587,384.412l63.113-3.824l15.3,61.199C124.312,428.4,95.625,409.275,74.587,384.412z M302.175,449.438
		C283.05,455.175,262.013,459,239.062,459s-42.075-3.825-63.112-9.562l-21.038-80.325l43.987-43.987h78.413l45.9,45.9
		L302.175,449.438z M323.213,441.787l15.3-61.199l63.112,3.824C382.5,409.275,353.812,428.4,323.213,441.787z M338.513,361.463
		l-45.9-47.812l24.862-84.15l66.938-28.688L459,248.625c-1.912,43.987-17.213,84.15-40.162,116.662L338.513,361.463z"/>
</g>
<g>
</g>
<g>
</g>
<g>
</g>
<g>
</g>
<g>
</g>
<g>
</g>
<g>
</g>
<g>
</g>
<g>
</g>
<g>
</g>
<g>
</g>
<g>
</g>
<g>
</g>
<g>
</g>
<g>
</g>
</svg>
